<?xml version="1.0" encoding="UTF-8"?>
<svg width="24" height="24" viewBox="0 0 24 24"
     xmlns="http://www.w3.org/2000/svg" role="img" aria-label="WhatsApp icon">
  <path fill="currentColor" d="M20.52 3.48A10.5 10.5 0 0 0 3.7 20.3L2 22l1.7-1.7A10.5 10.5 0 1 0 20.52 3.48Zm-8.02 15.5c-1.84 0-3.56-.54-5-1.47L5 17l.52-2.45A7.98 7.98 0 1 1 12.5 18.98Zm4.23-4.84c-.23-.14-1.24-.69-1.43-.77-.19-.07-.33-.11-.47.11-.14.21-.54.77-.67.93-.12.16-.25.17-.46.06-.23-.11-.98-.36-1.86-1.11-.69-.55-1.16-1.23-1.29-1.44-.13-.21-.01-.32.1-.43.1-.1.23-.26.35-.39.12-.13.16-.22.24-.38.08-.16.04-.29 0-.4 0-.11-.47-1.13-.64-1.55-.17-.41-.35-.35-.47-.35h-.4a.77.77 0 0 0-.55.26c-.19.2-.72.7-.72 1.7 0 .99.74 1.95.85 2.09.11.14 1.46 2.22 3.53 3.03 2.07.81 2.07.54 2.45.51.38-.03 1.2-.49 1.37-.97.17-.48.17-.89.12-.97-.05-.08-.2-.13-.43-.27Z"/>
</svg>
